<svg width="400" height="400" viewBox="0 0 400 400" fill="none" xmlns="http://www.w3.org/2000/svg">
<rect width="400" height="400" fill="#E5E5E5"/>
<g id="image2vector 1">
<g id="svgg">
<path id="path0" fill-rule="evenodd" clip-rule="evenodd" d="M214.443 125.965C214.136 126.159 213.745 127.101 213.573 128.059C213.212 130.074 212.206 134.142 211.376 136.946C211.059 138.016 210.8 139.389 210.8 139.997C210.8 140.605 210.53 141.749 210.2 142.538C209.87 143.328 209.6 144.622 209.6 145.413C209.6 146.205 209.426 147.177 209.214 147.574C209.001 147.971 208.649 149.265 208.43 150.448C207.621 154.83 206.163 161.132 205.526 163C205.3 163.66 204.889 165.37 204.612 166.8C204.335 168.23 203.903 169.907 203.654 170.526C203.404 171.145 203.2 172.26 203.2 173.002C203.2 173.745 203.044 174.449 202.853 174.567C202.662 174.685 202.382 175.731 202.232 176.891C202.082 178.051 201.794 179.63 201.593 180.4C201.271 181.632 198.41 194.14 197.841 196.8C197.724 197.35 197.335 198.97 196.977 200.4C196.62 201.83 196.147 203.9 195.926 205C195.706 206.1 195.272 207.876 194.963 208.946C194.653 210.016 194.4 211.417 194.4 212.059V213.226L216.3 213.113C240.597 212.988 239.246 213.136 242.094 210.272C245.112 207.234 245.936 203.6 246.103 192.574C246.21 185.559 246.235 185.62 243.701 186.934C243.206 187.19 241.227 188.21 239.302 189.2C236.219 190.785 229.717 194.222 224.44 197.055C223.473 197.575 222.46 198 222.189 198C221.919 198 221.474 198.27 221.2 198.6C220.399 199.565 218.809 199.37 218.752 198.3C218.271 189.26 218.529 188.475 222.65 186.446C224.163 185.702 226.062 184.767 226.871 184.368C227.68 183.97 228.76 183.426 229.271 183.16C229.782 182.893 230.47 182.535 230.8 182.364C231.13 182.192 234.73 180.382 238.8 178.341C242.87 176.301 247.063 174.129 248.118 173.515C249.172 172.902 250.284 172.4 250.589 172.4C250.894 172.4 251.381 172.165 251.671 171.878C251.962 171.59 252.528 171.231 252.93 171.079C254.408 170.519 253.307 169.46 248.847 167.154C246.343 165.859 244.137 164.8 243.944 164.8C243.751 164.8 242.848 164.26 241.937 163.6C241.025 162.94 240.11 162.4 239.903 162.4C239.695 162.4 235.987 160.662 231.663 158.538C227.338 156.414 223.027 154.299 222.082 153.838C218.92 152.295 218.704 151.845 218.726 146.832C218.749 141.298 219.66 140.196 222.446 142.331C222.971 142.733 224.21 143.462 225.2 143.951C226.19 144.439 227.27 145.006 227.6 145.21C227.93 145.414 229.1 146.01 230.2 146.535C234.399 148.54 243.379 153.219 243.761 153.601C243.98 153.82 244.587 154 245.108 154H246.056L245.864 145.3C245.557 131.327 244.008 128.009 236.935 126.166C234.455 125.52 215.414 125.35 214.443 125.965Z" fill="#07FAFA"/>
<path id="path1" fill-rule="evenodd" clip-rule="evenodd" d="M162.232 126.348C162.114 126.54 161.518 126.807 160.908 126.941C158.256 127.527 155.5 131.502 154.767 135.8C154.237 138.907 153.931 154.4 154.399 154.4C154.562 154.4 156.114 153.654 157.848 152.742C163.293 149.878 170.527 146.139 172.4 145.219C174.456 144.21 174.525 144.175 177.902 142.418C181.518 140.537 181.6 140.628 181.6 146.538C181.6 152.597 183.68 150.878 165.064 160.209C143.725 170.904 145.485 169.949 146.097 170.514C146.387 170.781 147.608 171.473 148.812 172.051C159.362 177.119 180.582 188.108 181.087 188.765C181.779 189.666 181.79 199.066 181.1 199.31C180.825 199.407 178.35 198.316 175.6 196.884C172.85 195.453 168.44 193.171 165.8 191.814C163.16 190.457 159.627 188.593 157.949 187.673C153.754 185.373 153.997 185.123 154.019 191.7C154.065 205.224 155.662 209.968 160.984 212.393C163.664 213.613 186.4 213.649 186.4 212.432C186.4 211.681 186.863 209.621 188.204 204.4C188.572 202.97 189.042 200.9 189.25 199.8C189.458 198.7 189.787 197.44 189.982 197C190.177 196.56 190.442 195.308 190.572 194.219C190.701 193.129 190.975 191.689 191.181 191.019C191.539 189.849 192.012 187.883 193.396 181.8C193.746 180.26 194.238 178.1 194.489 177C194.74 175.9 195.093 174.829 195.273 174.62C195.453 174.411 195.6 173.652 195.6 172.934C195.6 172.216 195.852 170.857 196.16 169.914C196.468 168.971 196.842 167.322 196.992 166.248C197.142 165.174 197.409 163.914 197.586 163.448C197.912 162.591 198.643 159.483 199.811 154C200.162 152.35 200.612 150.37 200.81 149.6C201.596 146.548 202.886 140.896 203.216 139.06C203.408 137.993 203.74 136.553 203.954 135.86C204.169 135.167 204.468 133.79 204.618 132.8C204.769 131.81 205.029 130.73 205.195 130.4C205.362 130.07 205.622 128.945 205.773 127.9L206.049 126H184.248C172.258 126 162.35 126.157 162.232 126.348ZM200.735 224.04C200.318 224.297 200.17 226.541 200.064 234.185C199.989 239.583 199.833 244 199.717 244C199.602 244 198.46 243.03 197.18 241.846C195.44 240.234 194.266 239.518 192.526 239.004C191.247 238.626 189.72 238.171 189.134 237.991C187.458 237.479 182.068 238.37 179.4 239.601C175.204 241.537 172.202 245.274 170.437 250.76C169.872 252.518 169.872 259.482 170.437 261.24C172.005 266.115 174.513 269.801 177.619 271.797C179.444 272.968 186.835 275.073 187.558 274.626C187.723 274.524 189.182 274.164 190.799 273.827C193.973 273.165 196.146 271.951 198.271 269.651C199.844 267.949 200.37 268.307 200.147 270.928C199.893 273.93 200.032 274.047 203.732 273.916L207 273.8L207.103 249.223C207.162 235.11 207.054 224.494 206.848 224.288C206.376 223.816 201.422 223.616 200.735 224.04ZM105.6 238.066C98.1299 239.662 95.112 241.768 91.897 247.63C90.059 250.982 89.6429 259.547 91.1509 263C91.3429 263.44 91.6889 264.274 91.9199 264.853C94.8659 272.241 105.387 276.039 115 273.185C118.49 272.149 122.4 269.412 122.4 268.005C122.4 267.054 119.313 264.283 118.684 264.67C118.418 264.833 117.48 265.439 116.6 266.016C110.408 270.077 101.464 268.567 98.8669 263.022C97.1569 259.372 97.097 259.082 97.3 255.432C97.899 244.674 107.369 240.819 117.711 247.123L118.822 247.8L120.405 246C122.292 243.854 122.319 243.651 120.9 242.313C118.654 240.195 115.221 238.772 111 238.209C109.9 238.063 108.64 237.884 108.2 237.812C107.76 237.74 106.59 237.854 105.6 238.066ZM294.4 238.044C286.561 240.018 284.19 242.431 284.21 248.411C284.227 253.523 286.811 255.983 294.878 258.57C301.461 260.681 303.2 261.941 303.2 264.6C303.2 269.425 295.621 270.375 287.662 266.547C284.422 264.988 284.449 264.981 283.27 267.698L282.447 269.595L283.724 270.56C288.609 274.254 301.285 275.344 304.939 272.385C305.193 272.18 305.991 271.538 306.714 270.958C310.59 267.851 310.932 261.12 307.399 257.49C305.318 255.353 303.129 254.287 296.95 252.401C291.746 250.814 289.849 248.893 290.93 246.305C292.36 242.886 298.193 242.418 304.2 245.242C306.458 246.304 306.893 246.127 308.144 243.637L309.155 241.623L308.161 240.841C306.846 239.807 302.789 238.532 299.8 238.213C298.48 238.073 297.04 237.898 296.6 237.825C296.16 237.752 295.17 237.851 294.4 238.044ZM141.6 238.372C131.325 240.184 124.963 250.573 127.743 261C132.657 279.431 161.062 278.402 163.958 259.689C166.099 245.853 155.653 235.893 141.6 238.372ZM230.6 238.355C212.969 241.747 211.647 268.36 228.862 273.345C234.561 274.996 243.087 273.714 246.703 270.662C250.453 267.497 250.448 267.52 247.8 265.106C246.286 263.727 246.005 263.733 244.619 265.181C241.623 268.307 233.845 269.741 230.4 267.801C226.31 265.497 223.673 261.484 225.9 260.952C226.505 260.808 227.18 260.56 227.4 260.402C227.62 260.243 229.06 259.789 230.6 259.391C232.14 258.993 233.58 258.538 233.8 258.379C234.02 258.22 235.01 257.96 236 257.8C236.99 257.64 237.98 257.387 238.2 257.238C238.745 256.868 241.099 256.126 242.8 255.787C243.57 255.633 244.38 255.37 244.6 255.203C244.82 255.035 246.301 254.567 247.89 254.163C251.306 253.294 251.319 253.272 250.517 249.744C248.66 241.568 239.909 236.564 230.6 238.355ZM274.812 238.864C272.642 239.551 271.819 240.096 269.715 242.242C266.647 245.37 266.939 245.432 266.599 241.585L266.314 238.369L263.057 238.485L259.8 238.6V256.2V273.8L262.877 273.916C266.859 274.067 266.658 274.638 266.756 262.877C266.844 252.46 266.883 252.227 269.077 249.148C270.645 246.948 273.561 245.342 276.8 244.895L279 244.591L279.116 241.296C279.252 237.442 279.271 237.453 274.812 238.864ZM240.175 244.785C242.158 246.01 244.068 248.324 243.923 249.325C243.792 250.228 243.474 250.369 237.6 252.129C235.73 252.689 232.423 253.699 230.252 254.374C223.673 256.417 222.767 256.013 223.997 251.586C225.814 245.046 234.613 241.347 240.175 244.785ZM151.059 245.223C159.458 249.613 159.543 262.806 151.2 267.131C140.62 272.616 130.027 260.979 135.606 250C138.388 244.524 145.51 242.323 151.059 245.223ZM193.263 244.781C198.442 247.071 201.259 253.506 199.805 259.721C197.056 271.473 180.426 271.483 177.366 259.735C174.731 249.619 184.157 240.752 193.263 244.781Z" fill="#0014C4"/>
</g>
</g>
</svg>
