<svg width="70" height="30" viewBox="0 0 139 109" fill="none" xmlns="http://www.w3.org/2000/svg">
<g id="svgg" filter="url(#filter0_d)">
<path id="path0" fill-rule="evenodd" clip-rule="evenodd" d="M78.0913 0.259088C77.9082 0.390499 77.6749 1.02859 77.5723 1.67752C77.357 3.04244 76.7569 5.798 76.2618 7.69737C76.0728 8.42216 75.9183 9.3522 75.9183 9.76404C75.9183 10.1759 75.7572 10.9508 75.5604 11.4853C75.3635 12.0204 75.2025 12.8969 75.2025 13.4327C75.2025 13.9692 75.0987 14.6276 74.9722 14.8965C74.8452 15.1655 74.6352 16.042 74.5046 16.8433C74.022 19.8116 73.1523 24.0804 72.7723 25.3458C72.6375 25.7928 72.3924 26.9511 72.2271 27.9198C72.0619 28.8884 71.8042 30.0244 71.6557 30.4437C71.5066 30.863 71.3849 31.6183 71.3849 32.1209C71.3849 32.6242 71.2918 33.101 71.1779 33.181C71.064 33.2609 70.897 33.9694 70.8075 34.7552C70.718 35.541 70.5462 36.6105 70.4263 37.1321C70.2343 37.9666 68.5277 46.4393 68.1883 48.2411C68.1185 48.6137 67.8865 49.711 67.6729 50.6797C67.46 51.6483 67.1778 53.0505 67.046 53.7956C66.9148 54.5407 66.6559 55.7437 66.4716 56.4685C66.2867 57.1933 66.1357 58.1423 66.1357 58.5772V59.3677L79.199 59.2912C93.692 59.2065 92.8861 59.3067 94.585 57.3667C96.3852 55.3089 96.8767 52.8473 96.9763 45.3785C97.0401 40.6267 97.055 40.668 95.5435 41.5581C95.2483 41.7315 94.0678 42.4224 92.9195 43.093C91.0806 44.1667 87.2021 46.4948 84.0544 48.4138C83.4776 48.7661 82.8734 49.054 82.7117 49.054C82.5507 49.054 82.2852 49.2368 82.1218 49.4604C81.644 50.1141 80.6956 49.982 80.6616 49.2572C80.3747 43.1337 80.5286 42.6019 82.9867 41.2275C83.8892 40.7236 85.022 40.0902 85.5045 39.8199C85.9871 39.5504 86.6313 39.1819 86.9361 39.0017C87.2409 38.8208 87.6513 38.5783 87.8481 38.4625C88.045 38.346 90.1924 37.1199 92.6201 35.7374C95.0478 34.3555 97.5489 32.8843 98.1782 32.4684C98.8069 32.0531 99.4702 31.7131 99.6522 31.7131C99.8341 31.7131 100.125 31.5539 100.298 31.3595C100.471 31.1644 100.809 30.9212 101.049 30.8183C101.93 30.4389 101.273 29.7216 98.6131 28.1596C97.1195 27.2824 95.8036 26.565 95.6885 26.565C95.5733 26.565 95.0347 26.1993 94.4913 25.7522C93.9473 25.3051 93.4015 24.9393 93.278 24.9393C93.154 24.9393 90.9422 23.762 88.3629 22.3233C85.7831 20.8845 83.2116 19.4519 82.6479 19.1396C80.7618 18.0944 80.6329 17.7896 80.6461 14.3939C80.6598 10.6453 81.2032 9.89884 82.865 11.345C83.1782 11.6173 83.9172 12.1112 84.5078 12.4424C85.0983 12.773 85.7425 13.157 85.9394 13.2952C86.1362 13.4334 86.8341 13.8371 87.4902 14.1927C89.9949 15.5509 95.3514 18.7203 95.5793 18.9791C95.7099 19.1274 96.072 19.2494 96.3828 19.2494H96.9483L96.8337 13.3562C96.6506 3.89119 95.7266 1.64365 91.5076 0.395243C90.0283 -0.0423424 78.6705 -0.157499 78.0913 0.259088Z" fill="#07FAFA"/>
<path id="path1" fill-rule="evenodd" clip-rule="evenodd" d="M46.9478 0.518442C46.8774 0.648498 46.5219 0.829359 46.158 0.920128C44.5761 1.31707 42.9322 4.00965 42.4949 6.92101C42.1788 9.02562 41.9963 19.5202 42.2754 19.5202C42.3726 19.5202 43.2984 19.0149 44.3327 18.3971C47.5806 16.4571 51.8957 13.9244 53.0129 13.3012C54.2393 12.6177 54.2805 12.594 56.2948 11.4039C58.4517 10.1297 58.5007 10.1914 58.5007 14.1947C58.5007 18.2989 59.7414 17.1345 48.637 23.4551C35.9084 30.6997 36.9583 30.0528 37.3233 30.4355C37.4963 30.6163 38.2246 31.0851 38.9428 31.4766C45.2358 34.9096 57.8934 42.3533 58.1947 42.7983C58.6074 43.4086 58.614 49.7759 58.2024 49.9412C58.0384 50.0069 56.5621 49.2679 54.9217 48.2979C53.2813 47.3286 50.6508 45.7828 49.076 44.8636C47.5013 43.9444 45.3939 42.6818 44.393 42.0586C41.8907 40.5006 42.0356 40.3313 42.0487 44.7864C42.0762 53.9472 43.0288 57.1607 46.2033 58.8034C47.8019 59.6298 61.3638 59.6541 61.3638 58.8298C61.3638 58.3211 61.64 56.9257 62.4399 53.3891C62.6594 52.4204 62.9398 51.0183 63.0638 50.2731C63.1879 49.528 63.3842 48.6745 63.5005 48.3765C63.6168 48.0784 63.7749 47.2304 63.8524 46.4927C63.9294 45.7544 64.0928 44.7789 64.2157 44.3251C64.4292 43.5326 64.7114 42.2008 65.5369 38.0804C65.7457 37.0372 66.0392 35.5741 66.1889 34.8289C66.3386 34.0838 66.5492 33.3584 66.6565 33.2168C66.7639 33.0752 66.8516 32.5611 66.8516 32.0747C66.8516 31.5884 67.0019 30.6678 67.1856 30.0291C67.3693 29.3903 67.5924 28.2733 67.6819 27.5458C67.7714 26.8183 67.9306 25.9648 68.0362 25.6491C68.2307 25.0686 68.6667 22.9633 69.3634 19.2493C69.5728 18.1316 69.8412 16.7904 69.9593 16.2688C70.4282 14.2015 71.1976 10.3729 71.3945 9.12926C71.509 8.4065 71.707 7.43108 71.8347 6.96165C71.9629 6.49223 72.1413 5.55948 72.2308 4.88888C72.3208 4.21828 72.4759 3.4867 72.575 3.26317C72.6746 3.03964 72.8296 2.27759 72.9197 1.56973L73.0844 0.282715H60.0802C52.9282 0.282715 47.0181 0.389063 46.9478 0.518442ZM69.9146 66.6928C69.6658 66.8669 69.5776 68.3869 69.5143 73.5648C69.4696 77.2212 69.3765 80.2132 69.3073 80.2132C69.2387 80.2132 68.5575 79.5561 67.794 78.7541C66.7561 77.6622 66.0559 77.1772 65.018 76.829C64.255 76.573 63.3442 76.2648 62.9946 76.1429C61.9949 75.796 58.7798 76.3996 57.1884 77.2334C54.6855 78.5448 52.8948 81.0762 51.842 84.7923C51.505 85.9831 51.505 90.7004 51.842 91.8912C52.7773 95.1934 54.2733 97.6902 56.126 99.0423C57.2146 99.8355 61.6233 101.261 62.0546 100.959C62.153 100.889 63.0233 100.646 63.9878 100.417C65.8811 99.9689 67.1773 99.1466 68.4448 97.5886C69.3831 96.4357 69.6969 96.6782 69.5638 98.4536C69.4123 100.487 69.4952 100.566 71.7023 100.478L73.6516 100.399L73.7131 83.7512C73.7482 74.1913 73.6838 67.0003 73.561 66.8607C73.2794 66.541 70.3244 66.4056 69.9146 66.6928ZM13.1671 76.1937C8.71127 77.2748 6.91105 78.7013 4.99332 82.6721C3.89696 84.9427 3.64882 90.7444 4.54833 93.0834C4.66286 93.3814 4.86925 93.9464 5.00704 94.3386C6.76431 99.343 13.04 101.916 18.7741 99.9825C20.8559 99.2807 23.1882 97.4267 23.1882 96.4737C23.1882 95.8295 21.3468 93.9525 20.9716 94.2146C20.8129 94.325 20.2534 94.7355 19.7285 95.1263C16.035 97.8772 10.7 96.8543 9.15088 93.0983C8.13088 90.6259 8.09509 90.4294 8.21618 87.957C8.57348 80.6698 14.2223 78.0585 20.3912 82.3287L21.0539 82.7872L21.9982 81.568C23.1238 80.1143 23.1399 79.9768 22.2934 79.0705C20.9537 77.6358 18.906 76.6719 16.3882 76.2905C15.732 76.1916 14.9804 76.0704 14.718 76.0216C14.4555 75.9728 13.7576 76.0501 13.1671 76.1937ZM125.785 76.1788C121.109 77.5159 119.695 79.1504 119.707 83.2011C119.717 86.6639 121.258 88.3302 126.07 90.0826C129.997 91.5125 131.034 92.366 131.034 94.1672C131.034 97.4355 126.514 98.079 121.766 95.486C119.833 94.43 119.85 94.4253 119.146 96.2657L118.655 97.5507L119.417 98.2043C122.331 100.707 129.892 101.445 132.072 99.4406C132.223 99.3017 132.699 98.8668 133.13 98.474C135.442 96.3693 135.646 91.8099 133.539 89.351C132.298 87.9035 130.992 87.1814 127.306 85.9039C124.202 84.8289 123.071 83.5276 123.715 81.7746C124.568 79.4586 128.048 79.1416 131.631 81.0545C132.978 81.7739 133.237 81.654 133.983 79.9673L134.587 78.6031L133.994 78.0734C133.209 77.373 130.789 76.5093 129.006 76.2932C128.219 76.1984 127.36 76.0799 127.098 76.0304C126.835 75.981 126.245 76.048 125.785 76.1788ZM34.6409 76.4009C28.5119 77.6283 24.717 84.6656 26.3753 91.7286C29.3064 104.213 46.2499 103.516 47.9773 90.8406C49.2544 81.4684 43.0234 74.7217 34.6409 76.4009ZM87.7289 76.3894C77.2121 78.6871 76.4235 96.7141 86.6922 100.091C90.0916 101.209 95.1773 100.341 97.3342 98.2734C99.5711 96.1295 99.5681 96.1451 97.9886 94.5099C97.0855 93.5758 96.9179 93.5799 96.0911 94.5607C94.3041 96.6782 89.6645 97.6496 87.6096 96.3355C85.1699 94.7748 83.597 92.0565 84.9254 91.6961C85.2862 91.5986 85.6889 91.4306 85.8201 91.3236C85.9513 91.2159 86.8103 90.9083 87.7289 90.6387C88.6475 90.3691 89.5064 90.0609 89.6377 89.9532C89.7689 89.8455 90.3594 89.6694 90.95 89.561C91.5405 89.4526 92.131 89.2813 92.2622 89.1803C92.5873 88.9297 93.9915 88.4271 95.0061 88.1975C95.4654 88.0931 95.9486 87.915 96.0798 87.8019C96.211 87.6881 97.0944 87.371 98.0423 87.0974C100.08 86.5087 100.088 86.4939 99.6093 84.1041C98.5016 78.5658 93.2817 75.1762 87.7289 76.3894ZM114.101 76.7342C112.807 77.1996 112.316 77.5687 111.061 79.0224C109.231 81.1412 109.405 81.1832 109.202 78.5774L109.032 76.3989L107.089 76.4775L105.147 76.5554V88.4772V100.399L106.982 100.478C109.357 100.58 109.237 100.967 109.296 93.0001C109.348 85.9438 109.371 85.786 110.68 83.7003C111.616 82.2101 113.355 81.1223 115.287 80.8195L116.599 80.6135L116.668 78.3816C116.75 75.771 116.761 75.7784 114.101 76.7342ZM93.4403 80.745C94.6232 81.5747 95.7625 83.1422 95.676 83.8202C95.5978 84.4319 95.4082 84.5274 91.9044 85.7196C90.7889 86.0989 88.8163 86.7831 87.5213 87.2403C83.597 88.6242 83.0565 88.3505 83.7902 85.3518C84.8741 80.9217 90.1226 78.4161 93.4403 80.745ZM40.2831 81.0416C45.2931 84.0153 45.3438 92.952 40.3672 95.8816C34.0563 99.597 27.7377 91.7144 31.0655 84.2775C32.7249 80.5682 36.9732 79.0773 40.2831 81.0416ZM65.4576 80.7422C68.5468 82.2934 70.2271 86.6524 69.3598 90.8623C67.7201 98.8228 57.8004 98.8296 55.9751 90.8717C54.4033 84.0194 60.0259 78.0131 65.4576 80.7422Z" fill="#0014C4"/>
</g>
<defs>
<filter id="filter0_d" x="0" y="0" width="139" height="109" filterUnits="userSpaceOnUse" color-interpolation-filters="sRGB">
<feFlood flood-opacity="0" result="BackgroundImageFix"/>
<feColorMatrix in="SourceAlpha" type="matrix" values="0 0 0 0 0 0 0 0 0 0 0 0 0 0 0 0 0 0 127 0"/>
<feOffset dy="4"/>
<feGaussianBlur stdDeviation="2"/>
<feColorMatrix type="matrix" values="0 0 0 0 0 0 0 0 0 0 0 0 0 0 0 0 0 0 0.25 0"/>
<feBlend mode="normal" in2="BackgroundImageFix" result="effect1_dropShadow"/>
<feBlend mode="normal" in="SourceGraphic" in2="effect1_dropShadow" result="shape"/>
</filter>
</defs>
</svg>
